# https://github.com/mikedh/trimesh

o CounterStationShelf
v -0.49300000 0.06000000 -0.24500000
v -0.44700000 0.06000000 -0.24500000
v -0.43500000 0.06000000 -0.23300000
v -0.43500000 0.06000000 -0.18700000
v -0.44700000 0.06000000 -0.17500000
v -0.49300000 0.06000000 -0.17500000
v -0.50500000 0.06000000 -0.18700000
v -0.50500000 0.06000000 -0.23300000
v -0.49300000 1.43000000 -0.24500000
v -0.44700000 1.43000000 -0.24500000
v -0.43500000 1.43000000 -0.23300000
v -0.43500000 1.43000000 -0.18700000
v -0.44700000 1.43000000 -0.17500000
v -0.49300000 1.43000000 -0.17500000
v -0.50500000 1.43000000 -0.18700000
v -0.50500000 1.43000000 -0.23300000
v -0.41500000 0.01750000 -0.21000000
v -0.41500000 0.05250000 -0.21000000
v -0.43110900 0.01750000 -0.17110900
v -0.43110900 0.05250000 -0.17110900
v -0.47000000 0.01750000 -0.15500000
v -0.47000000 0.05250000 -0.15500000
v -0.50889100 0.01750000 -0.17110900
v -0.50889100 0.05250000 -0.17110900
v -0.52500000 0.01750000 -0.21000000
v -0.52500000 0.05250000 -0.21000000
v -0.50889100 0.01750000 -0.24889100
v -0.50889100 0.05250000 -0.24889100
v -0.47000000 0.01750000 -0.26500000
v -0.47000000 0.05250000 -0.26500000
v -0.43110900 0.01750000 -0.24889100
v -0.43110900 0.05250000 -0.24889100
v 0.44700000 0.06000000 -0.24500000
v 0.49300000 0.06000000 -0.24500000
v 0.50500000 0.06000000 -0.23300000
v 0.50500000 0.06000000 -0.18700000
v 0.49300000 0.06000000 -0.17500000
v 0.44700000 0.06000000 -0.17500000
v 0.43500000 0.06000000 -0.18700000
v 0.43500000 0.06000000 -0.23300000
v 0.44700000 1.43000000 -0.24500000
v 0.49300000 1.43000000 -0.24500000
v 0.50500000 1.43000000 -0.23300000
v 0.50500000 1.43000000 -0.18700000
v 0.49300000 1.43000000 -0.17500000
v 0.44700000 1.43000000 -0.17500000
v 0.43500000 1.43000000 -0.18700000
v 0.43500000 1.43000000 -0.23300000
v 0.52500000 0.01750000 -0.21000000
v 0.52500000 0.05250000 -0.21000000
v 0.50889100 0.01750000 -0.17110900
v 0.50889100 0.05250000 -0.17110900
v 0.47000000 0.01750000 -0.15500000
v 0.47000000 0.05250000 -0.15500000
v 0.43110900 0.01750000 -0.17110900
v 0.43110900 0.05250000 -0.17110900
v 0.41500000 0.01750000 -0.21000000
v 0.41500000 0.05250000 -0.21000000
v 0.43110900 0.01750000 -0.24889100
v 0.43110900 0.05250000 -0.24889100
v 0.47000000 0.01750000 -0.26500000
v 0.47000000 0.05250000 -0.26500000
v 0.50889100 0.01750000 -0.24889100
v 0.50889100 0.05250000 -0.24889100
v -0.49300000 0.06000000 0.17500000
v -0.44700000 0.06000000 0.17500000
v -0.43500000 0.06000000 0.18700000
v -0.43500000 0.06000000 0.23300000
v -0.44700000 0.06000000 0.24500000
v -0.49300000 0.06000000 0.24500000
v -0.50500000 0.06000000 0.23300000
v -0.50500000 0.06000000 0.18700000
v -0.49300000 1.43000000 0.17500000
v -0.44700000 1.43000000 0.17500000
v -0.43500000 1.43000000 0.18700000
v -0.43500000 1.43000000 0.23300000
v -0.44700000 1.43000000 0.24500000
v -0.49300000 1.43000000 0.24500000
v -0.50500000 1.43000000 0.23300000
v -0.50500000 1.43000000 0.18700000
v -0.41500000 0.01750000 0.21000000
v -0.41500000 0.05250000 0.21000000
v -0.43110900 0.01750000 0.24889100
v -0.43110900 0.05250000 0.24889100
v -0.47000000 0.01750000 0.26500000
v -0.47000000 0.05250000 0.26500000
v -0.50889100 0.01750000 0.24889100
v -0.50889100 0.05250000 0.24889100
v -0.52500000 0.01750000 0.21000000
v -0.52500000 0.05250000 0.21000000
v -0.50889100 0.01750000 0.17110900
v -0.50889100 0.05250000 0.17110900
v -0.47000000 0.01750000 0.15500000
v -0.47000000 0.05250000 0.15500000
v -0.43110900 0.01750000 0.17110900
v -0.43110900 0.05250000 0.17110900
v 0.44700000 0.06000000 0.17500000
v 0.49300000 0.06000000 0.17500000
v 0.50500000 0.06000000 0.18700000
v 0.50500000 0.06000000 0.23300000
v 0.49300000 0.06000000 0.24500000
v 0.44700000 0.06000000 0.24500000
v 0.43500000 0.06000000 0.23300000
v 0.43500000 0.06000000 0.18700000
v 0.44700000 1.43000000 0.17500000
v 0.49300000 1.43000000 0.17500000
v 0.50500000 1.43000000 0.18700000
v 0.50500000 1.43000000 0.23300000
v 0.49300000 1.43000000 0.24500000
v 0.44700000 1.43000000 0.24500000
v 0.43500000 1.43000000 0.23300000
v 0.43500000 1.43000000 0.18700000
v 0.52500000 0.01750000 0.21000000
v 0.52500000 0.05250000 0.21000000
v 0.50889100 0.01750000 0.24889100
v 0.50889100 0.05250000 0.24889100
v 0.47000000 0.01750000 0.26500000
v 0.47000000 0.05250000 0.26500000
v 0.43110900 0.01750000 0.24889100
v 0.43110900 0.05250000 0.24889100
v 0.41500000 0.01750000 0.21000000
v 0.41500000 0.05250000 0.21000000
v 0.43110900 0.01750000 0.17110900
v 0.43110900 0.05250000 0.17110900
v 0.47000000 0.01750000 0.15500000
v 0.47000000 0.05250000 0.15500000
v 0.50889100 0.01750000 0.17110900
v 0.50889100 0.05250000 0.17110900
v -0.51500000 0.28500000 -0.27500000
v 0.51500000 0.28500000 -0.27500000
v 0.55000000 0.28500000 -0.24000000
v 0.55000000 0.28500000 0.24000000
v 0.51500000 0.28500000 0.27500000
v -0.51500000 0.28500000 0.27500000
v -0.55000000 0.28500000 0.24000000
v -0.55000000 0.28500000 -0.24000000
v -0.51500000 0.35500000 -0.27500000
v 0.51500000 0.35500000 -0.27500000
v 0.55000000 0.35500000 -0.24000000
v 0.55000000 0.35500000 0.24000000
v 0.51500000 0.35500000 0.27500000
v -0.51500000 0.35500000 0.27500000
v -0.55000000 0.35500000 0.24000000
v -0.55000000 0.35500000 -0.24000000
v -0.49200000 0.35500000 0.23000000
v 0.49200000 0.35500000 0.23000000
v 0.50000000 0.35500000 0.23800000
v 0.50000000 0.35500000 0.27200000
v 0.49200000 0.35500000 0.28000000
v -0.49200000 0.35500000 0.28000000
v -0.50000000 0.35500000 0.27200000
v -0.50000000 0.35500000 0.23800000
v -0.49200000 0.44000000 0.23000000
v 0.49200000 0.44000000 0.23000000
v 0.50000000 0.44000000 0.23800000
v 0.50000000 0.44000000 0.27200000
v 0.49200000 0.44000000 0.28000000
v -0.49200000 0.44000000 0.28000000
v -0.50000000 0.44000000 0.27200000
v -0.50000000 0.44000000 0.23800000
v -0.51500000 0.78500000 -0.27500000
v 0.51500000 0.78500000 -0.27500000
v 0.55000000 0.78500000 -0.24000000
v 0.55000000 0.78500000 0.24000000
v 0.51500000 0.78500000 0.27500000
v -0.51500000 0.78500000 0.27500000
v -0.55000000 0.78500000 0.24000000
v -0.55000000 0.78500000 -0.24000000
v -0.51500000 0.85500000 -0.27500000
v 0.51500000 0.85500000 -0.27500000
v 0.55000000 0.85500000 -0.24000000
v 0.55000000 0.85500000 0.24000000
v 0.51500000 0.85500000 0.27500000
v -0.51500000 0.85500000 0.27500000
v -0.55000000 0.85500000 0.24000000
v -0.55000000 0.85500000 -0.24000000
v -0.49200000 0.85500000 0.23000000
v 0.49200000 0.85500000 0.23000000
v 0.50000000 0.85500000 0.23800000
v 0.50000000 0.85500000 0.27200000
v 0.49200000 0.85500000 0.28000000
v -0.49200000 0.85500000 0.28000000
v -0.50000000 0.85500000 0.27200000
v -0.50000000 0.85500000 0.23800000
v -0.49200000 0.94000000 0.23000000
v 0.49200000 0.94000000 0.23000000
v 0.50000000 0.94000000 0.23800000
v 0.50000000 0.94000000 0.27200000
v 0.49200000 0.94000000 0.28000000
v -0.49200000 0.94000000 0.28000000
v -0.50000000 0.94000000 0.27200000
v -0.50000000 0.94000000 0.23800000
v -0.51500000 1.33500000 -0.27500000
v 0.51500000 1.33500000 -0.27500000
v 0.55000000 1.33500000 -0.24000000
v 0.55000000 1.33500000 0.24000000
v 0.51500000 1.33500000 0.27500000
v -0.51500000 1.33500000 0.27500000
v -0.55000000 1.33500000 0.24000000
v -0.55000000 1.33500000 -0.24000000
v -0.51500000 1.40500000 -0.27500000
v 0.51500000 1.40500000 -0.27500000
v 0.55000000 1.40500000 -0.24000000
v 0.55000000 1.40500000 0.24000000
v 0.51500000 1.40500000 0.27500000
v -0.51500000 1.40500000 0.27500000
v -0.55000000 1.40500000 0.24000000
v -0.55000000 1.40500000 -0.24000000
v -0.49200000 1.40500000 0.23000000
v 0.49200000 1.40500000 0.23000000
v 0.50000000 1.40500000 0.23800000
v 0.50000000 1.40500000 0.27200000
v 0.49200000 1.40500000 0.28000000
v -0.49200000 1.40500000 0.28000000
v -0.50000000 1.40500000 0.27200000
v -0.50000000 1.40500000 0.23800000
v -0.49200000 1.49000000 0.23000000
v 0.49200000 1.49000000 0.23000000
v 0.50000000 1.49000000 0.23800000
v 0.50000000 1.49000000 0.27200000
v 0.49200000 1.49000000 0.28000000
v -0.49200000 1.49000000 0.28000000
v -0.50000000 1.49000000 0.27200000
v -0.50000000 1.49000000 0.23800000
f 6 7 8
f 5 6 8
f 4 5 8
f 3 4 8
f 2 3 8
f 1 2 8
f 11 10 9
f 12 11 9
f 13 12 9
f 14 13 9
f 15 14 9
f 16 15 9
f 10 2 1
f 1 9 10
f 11 3 2
f 2 10 11
f 12 4 3
f 3 11 12
f 13 5 4
f 4 12 13
f 14 6 5
f 5 13 14
f 15 7 6
f 6 14 15
f 16 8 7
f 7 15 16
f 9 1 8
f 8 16 9
f 27 29 31
f 25 27 31
f 23 25 31
f 21 23 31
f 19 21 31
f 17 19 31
f 22 20 18
f 24 22 18
f 26 24 18
f 28 26 18
f 30 28 18
f 32 30 18
f 20 19 17
f 17 18 20
f 22 21 19
f 19 20 22
f 24 23 21
f 21 22 24
f 26 25 23
f 23 24 26
f 28 27 25
f 25 26 28
f 30 29 27
f 27 28 30
f 32 31 29
f 29 30 32
f 18 17 31
f 31 32 18
f 38 39 40
f 37 38 40
f 36 37 40
f 35 36 40
f 34 35 40
f 33 34 40
f 43 42 41
f 44 43 41
f 45 44 41
f 46 45 41
f 47 46 41
f 48 47 41
f 42 34 33
f 33 41 42
f 43 35 34
f 34 42 43
f 44 36 35
f 35 43 44
f 45 37 36
f 36 44 45
f 46 38 37
f 37 45 46
f 47 39 38
f 38 46 47
f 48 40 39
f 39 47 48
f 41 33 40
f 40 48 41
f 59 61 63
f 57 59 63
f 55 57 63
f 53 55 63
f 51 53 63
f 49 51 63
f 54 52 50
f 56 54 50
f 58 56 50
f 60 58 50
f 62 60 50
f 64 62 50
f 52 51 49
f 49 50 52
f 54 53 51
f 51 52 54
f 56 55 53
f 53 54 56
f 58 57 55
f 55 56 58
f 60 59 57
f 57 58 60
f 62 61 59
f 59 60 62
f 64 63 61
f 61 62 64
f 50 49 63
f 63 64 50
f 70 71 72
f 69 70 72
f 68 69 72
f 67 68 72
f 66 67 72
f 65 66 72
f 75 74 73
f 76 75 73
f 77 76 73
f 78 77 73
f 79 78 73
f 80 79 73
f 74 66 65
f 65 73 74
f 75 67 66
f 66 74 75
f 76 68 67
f 67 75 76
f 77 69 68
f 68 76 77
f 78 70 69
f 69 77 78
f 79 71 70
f 70 78 79
f 80 72 71
f 71 79 80
f 73 65 72
f 72 80 73
f 91 93 95
f 89 91 95
f 87 89 95
f 85 87 95
f 83 85 95
f 81 83 95
f 86 84 82
f 88 86 82
f 90 88 82
f 92 90 82
f 94 92 82
f 96 94 82
f 84 83 81
f 81 82 84
f 86 85 83
f 83 84 86
f 88 87 85
f 85 86 88
f 90 89 87
f 87 88 90
f 92 91 89
f 89 90 92
f 94 93 91
f 91 92 94
f 96 95 93
f 93 94 96
f 82 81 95
f 95 96 82
f 102 103 104
f 101 102 104
f 100 101 104
f 99 100 104
f 98 99 104
f 97 98 104
f 107 106 105
f 108 107 105
f 109 108 105
f 110 109 105
f 111 110 105
f 112 111 105
f 106 98 97
f 97 105 106
f 107 99 98
f 98 106 107
f 108 100 99
f 99 107 108
f 109 101 100
f 100 108 109
f 110 102 101
f 101 109 110
f 111 103 102
f 102 110 111
f 112 104 103
f 103 111 112
f 105 97 104
f 104 112 105
f 123 125 127
f 121 123 127
f 119 121 127
f 117 119 127
f 115 117 127
f 113 115 127
f 118 116 114
f 120 118 114
f 122 120 114
f 124 122 114
f 126 124 114
f 128 126 114
f 116 115 113
f 113 114 116
f 118 117 115
f 115 116 118
f 120 119 117
f 117 118 120
f 122 121 119
f 119 120 122
f 124 123 121
f 121 122 124
f 126 125 123
f 123 124 126
f 128 127 125
f 125 126 128
f 114 113 127
f 127 128 114
f 134 135 136
f 133 134 136
f 132 133 136
f 131 132 136
f 130 131 136
f 129 130 136
f 139 138 137
f 140 139 137
f 141 140 137
f 142 141 137
f 143 142 137
f 144 143 137
f 138 130 129
f 129 137 138
f 139 131 130
f 130 138 139
f 140 132 131
f 131 139 140
f 141 133 132
f 132 140 141
f 142 134 133
f 133 141 142
f 143 135 134
f 134 142 143
f 144 136 135
f 135 143 144
f 137 129 136
f 136 144 137
f 150 151 152
f 149 150 152
f 148 149 152
f 147 148 152
f 146 147 152
f 145 146 152
f 155 154 153
f 156 155 153
f 157 156 153
f 158 157 153
f 159 158 153
f 160 159 153
f 154 146 145
f 145 153 154
f 155 147 146
f 146 154 155
f 156 148 147
f 147 155 156
f 157 149 148
f 148 156 157
f 158 150 149
f 149 157 158
f 159 151 150
f 150 158 159
f 160 152 151
f 151 159 160
f 153 145 152
f 152 160 153
f 166 167 168
f 165 166 168
f 164 165 168
f 163 164 168
f 162 163 168
f 161 162 168
f 171 170 169
f 172 171 169
f 173 172 169
f 174 173 169
f 175 174 169
f 176 175 169
f 170 162 161
f 161 169 170
f 171 163 162
f 162 170 171
f 172 164 163
f 163 171 172
f 173 165 164
f 164 172 173
f 174 166 165
f 165 173 174
f 175 167 166
f 166 174 175
f 176 168 167
f 167 175 176
f 169 161 168
f 168 176 169
f 182 183 184
f 181 182 184
f 180 181 184
f 179 180 184
f 178 179 184
f 177 178 184
f 187 186 185
f 188 187 185
f 189 188 185
f 190 189 185
f 191 190 185
f 192 191 185
f 186 178 177
f 177 185 186
f 187 179 178
f 178 186 187
f 188 180 179
f 179 187 188
f 189 181 180
f 180 188 189
f 190 182 181
f 181 189 190
f 191 183 182
f 182 190 191
f 192 184 183
f 183 191 192
f 185 177 184
f 184 192 185
f 198 199 200
f 197 198 200
f 196 197 200
f 195 196 200
f 194 195 200
f 193 194 200
f 203 202 201
f 204 203 201
f 205 204 201
f 206 205 201
f 207 206 201
f 208 207 201
f 202 194 193
f 193 201 202
f 203 195 194
f 194 202 203
f 204 196 195
f 195 203 204
f 205 197 196
f 196 204 205
f 206 198 197
f 197 205 206
f 207 199 198
f 198 206 207
f 208 200 199
f 199 207 208
f 201 193 200
f 200 208 201
f 214 215 216
f 213 214 216
f 212 213 216
f 211 212 216
f 210 211 216
f 209 210 216
f 219 218 217
f 220 219 217
f 221 220 217
f 222 221 217
f 223 222 217
f 224 223 217
f 218 210 209
f 209 217 218
f 219 211 210
f 210 218 219
f 220 212 211
f 211 219 220
f 221 213 212
f 212 220 221
f 222 214 213
f 213 221 222
f 223 215 214
f 214 222 223
f 224 216 215
f 215 223 224
f 217 209 216
f 216 224 217
