# https://github.com/mikedh/trimesh

o CounterStationTop
v 2.11500000 1.01500000 -1.09000000
v 2.11500000 1.01500000 1.09000000
v 0.11449700 1.01500000 1.09000000
v -2.06550300 1.01500000 -1.09000000
v -2.15000000 0.99500000 -1.12500000
v 2.15000000 0.99500000 -1.12500000
v 2.15000000 0.99500000 1.12500000
v 0.10000000 0.99500000 1.12500000
v -2.15000000 0.85500000 -1.12500000
v 2.15000000 0.85500000 -1.12500000
v 2.15000000 0.85500000 1.12500000
v 0.10000000 0.85500000 1.12500000
v 2.11500000 0.83500000 -1.09000000
v 2.11500000 0.83500000 1.09000000
v 0.11449700 0.83500000 1.09000000
v -2.06550300 0.83500000 -1.09000000
f 3 2 1
f 14 15 16
f 1 2 6
f 2 3 7
f 3 4 8
f 4 1 5
f 5 6 10
f 6 7 11
f 7 8 12
f 8 5 9
f 9 10 14
f 10 11 15
f 11 12 16
f 12 9 13
f 1 4 3
f 16 13 14
f 6 5 1
f 7 6 2
f 8 7 3
f 5 8 4
f 10 9 5
f 11 10 6
f 12 11 7
f 9 12 8
f 14 13 9
f 15 14 10
f 16 15 11
f 13 16 12
