# Counter station product frame - authored low-poly chamfered beams
o CounterStationFrame
v -1.7750 0.0800 -0.8022
v -1.7750 0.0800 -0.9178
v -1.8022 0.0800 -0.9450
v -1.9178 0.0800 -0.9450
v -1.9450 0.0800 -0.9178
v -1.9450 0.0800 -0.8022
v -1.9178 0.0800 -0.7750
v -1.8022 0.0800 -0.7750
v -1.7750 0.8400 -0.8022
v -1.7750 0.8400 -0.9178
v -1.8022 0.8400 -0.9450
v -1.9178 0.8400 -0.9450
v -1.9450 0.8400 -0.9178
v -1.9450 0.8400 -0.8022
v -1.9178 0.8400 -0.7750
v -1.8022 0.8400 -0.7750
v 1.9450 0.0800 -0.8022
v 1.9450 0.0800 -0.9178
v 1.9178 0.0800 -0.9450
v 1.8022 0.0800 -0.9450
v 1.7750 0.0800 -0.9178
v 1.7750 0.0800 -0.8022
v 1.8022 0.0800 -0.7750
v 1.9178 0.0800 -0.7750
v 1.9450 0.8400 -0.8022
v 1.9450 0.8400 -0.9178
v 1.9178 0.8400 -0.9450
v 1.8022 0.8400 -0.9450
v 1.7750 0.8400 -0.9178
v 1.7750 0.8400 -0.8022
v 1.8022 0.8400 -0.7750
v 1.9178 0.8400 -0.7750
v 1.9450 0.0800 0.9178
v 1.9450 0.0800 0.8022
v 1.9178 0.0800 0.7750
v 1.8022 0.0800 0.7750
v 1.7750 0.0800 0.8022
v 1.7750 0.0800 0.9178
v 1.8022 0.0800 0.9450
v 1.9178 0.0800 0.9450
v 1.9450 0.8400 0.9178
v 1.9450 0.8400 0.8022
v 1.9178 0.8400 0.7750
v 1.8022 0.8400 0.7750
v 1.7750 0.8400 0.8022
v 1.7750 0.8400 0.9178
v 1.8022 0.8400 0.9450
v 1.9178 0.8400 0.9450
v -1.7750 0.0800 0.9178
v -1.7750 0.0800 0.8022
v -1.8022 0.0800 0.7750
v -1.9178 0.0800 0.7750
v -1.9450 0.0800 0.8022
v -1.9450 0.0800 0.9178
v -1.9178 0.0800 0.9450
v -1.8022 0.0800 0.9450
v -1.7750 0.4700 0.9178
v -1.7750 0.4700 0.8022
v -1.8022 0.4700 0.7750
v -1.9178 0.4700 0.7750
v -1.9450 0.4700 0.8022
v -1.9450 0.4700 0.9178
v -1.9178 0.4700 0.9450
v -1.8022 0.4700 0.9450
v -1.8600 0.8450 -0.9042
v -1.8600 0.8450 -0.8158
v -1.8600 0.8242 -0.7950
v -1.8600 0.7358 -0.7950
v -1.8600 0.7150 -0.8158
v -1.8600 0.7150 -0.9042
v -1.8600 0.7358 -0.9250
v -1.8600 0.8242 -0.9250
v 1.8600 0.8450 -0.9042
v 1.8600 0.8450 -0.8158
v 1.8600 0.8242 -0.7950
v 1.8600 0.7358 -0.7950
v 1.8600 0.7150 -0.8158
v 1.8600 0.7150 -0.9042
v 1.8600 0.7358 -0.9250
v 1.8600 0.8242 -0.9250
v 0.1800 0.8250 0.9608
v 0.1800 0.8250 1.0792
v 0.1800 0.8042 1.1000
v 0.1800 0.7158 1.1000
v 0.1800 0.6950 1.0792
v 0.1800 0.6950 0.9608
v 0.1800 0.7158 0.9400
v 0.1800 0.8042 0.9400
v 1.8600 0.8250 0.9608
v 1.8600 0.8250 1.0792
v 1.8600 0.8042 1.1000
v 1.8600 0.7158 1.1000
v 1.8600 0.6950 1.0792
v 1.8600 0.6950 0.9608
v 1.8600 0.7158 0.9400
v 1.8600 0.8042 0.9400
v -1.8312 0.7800 -0.8088
v -1.8888 0.7800 -0.7512
v -1.9024 0.7608 -0.7376
v -1.9024 0.6792 -0.7376
v -1.8888 0.6600 -0.7512
v -1.8312 0.6600 -0.8088
v -1.8176 0.6792 -0.8224
v -1.8176 0.7608 -0.8224
v -0.0712 0.7800 0.9512
v -0.1288 0.7800 1.0088
v -0.1424 0.7608 1.0224
v -0.1424 0.6792 1.0224
v -0.1288 0.6600 1.0088
v -0.0712 0.6600 0.9512
v -0.0576 0.6792 0.9376
v -0.0576 0.7608 0.9376
f 1 3 2
f 1 4 3
f 1 5 4
f 1 6 5
f 1 7 6
f 1 8 7
f 9 10 11
f 9 11 12
f 9 12 13
f 9 13 14
f 9 14 15
f 9 15 16
f 1 2 10
f 1 10 9
f 2 3 11
f 2 11 10
f 3 4 12
f 3 12 11
f 4 5 13
f 4 13 12
f 5 6 14
f 5 14 13
f 6 7 15
f 6 15 14
f 7 8 16
f 7 16 15
f 8 1 9
f 8 9 16
f 17 19 18
f 17 20 19
f 17 21 20
f 17 22 21
f 17 23 22
f 17 24 23
f 25 26 27
f 25 27 28
f 25 28 29
f 25 29 30
f 25 30 31
f 25 31 32
f 17 18 26
f 17 26 25
f 18 19 27
f 18 27 26
f 19 20 28
f 19 28 27
f 20 21 29
f 20 29 28
f 21 22 30
f 21 30 29
f 22 23 31
f 22 31 30
f 23 24 32
f 23 32 31
f 24 17 25
f 24 25 32
f 33 35 34
f 33 36 35
f 33 37 36
f 33 38 37
f 33 39 38
f 33 40 39
f 41 42 43
f 41 43 44
f 41 44 45
f 41 45 46
f 41 46 47
f 41 47 48
f 33 34 42
f 33 42 41
f 34 35 43
f 34 43 42
f 35 36 44
f 35 44 43
f 36 37 45
f 36 45 44
f 37 38 46
f 37 46 45
f 38 39 47
f 38 47 46
f 39 40 48
f 39 48 47
f 40 33 41
f 40 41 48
f 49 51 50
f 49 52 51
f 49 53 52
f 49 54 53
f 49 55 54
f 49 56 55
f 57 58 59
f 57 59 60
f 57 60 61
f 57 61 62
f 57 62 63
f 57 63 64
f 49 50 58
f 49 58 57
f 50 51 59
f 50 59 58
f 51 52 60
f 51 60 59
f 52 53 61
f 52 61 60
f 53 54 62
f 53 62 61
f 54 55 63
f 54 63 62
f 55 56 64
f 55 64 63
f 56 49 57
f 56 57 64
f 65 67 66
f 65 68 67
f 65 69 68
f 65 70 69
f 65 71 70
f 65 72 71
f 73 74 75
f 73 75 76
f 73 76 77
f 73 77 78
f 73 78 79
f 73 79 80
f 65 66 74
f 65 74 73
f 66 67 75
f 66 75 74
f 67 68 76
f 67 76 75
f 68 69 77
f 68 77 76
f 69 70 78
f 69 78 77
f 70 71 79
f 70 79 78
f 71 72 80
f 71 80 79
f 72 65 73
f 72 73 80
f 81 83 82
f 81 84 83
f 81 85 84
f 81 86 85
f 81 87 86
f 81 88 87
f 89 90 91
f 89 91 92
f 89 92 93
f 89 93 94
f 89 94 95
f 89 95 96
f 81 82 90
f 81 90 89
f 82 83 91
f 82 91 90
f 83 84 92
f 83 92 91
f 84 85 93
f 84 93 92
f 85 86 94
f 85 94 93
f 86 87 95
f 86 95 94
f 87 88 96
f 87 96 95
f 88 81 89
f 88 89 96
f 97 99 98
f 97 100 99
f 97 101 100
f 97 102 101
f 97 103 102
f 97 104 103
f 105 106 107
f 105 107 108
f 105 108 109
f 105 109 110
f 105 110 111
f 105 111 112
f 97 98 106
f 97 106 105
f 98 99 107
f 98 107 106
f 99 100 108
f 99 108 107
f 100 101 109
f 100 109 108
f 101 102 110
f 101 110 109
f 102 103 111
f 102 111 110
f 103 104 112
f 103 112 111
f 104 97 105
f 104 105 112
