# Slapdash Cafe - authored low-poly counter station core
mtllib counter_station_core.mtl
v -2.150000 1.015000 -1.125000
v 0.100000 1.015000 1.125000
v 2.040000 1.015000 1.125000
v 2.150000 1.015000 1.015000
v 2.150000 1.015000 -1.015000
v 2.040000 1.015000 -1.125000
v -2.150000 0.855000 -1.125000
v 0.100000 0.855000 1.125000
v 2.040000 0.855000 1.125000
v 2.150000 0.855000 1.015000
v 2.150000 0.855000 -1.015000
v 2.040000 0.855000 -1.125000
v -2.167678 1.015000 -1.107322
v -2.150000 0.615000 1.125000
v 0.082322 1.015000 1.142678
v -2.167678 0.855000 -1.107322
v -2.150000 0.455000 1.125000
v 0.082322 0.855000 1.142678
v -2.013483 0.857500 -1.046517
v -2.013483 0.802500 -1.046517
v -2.066517 0.857500 -0.993483
v -2.066517 0.802500 -0.993483
v 0.056517 0.857500 1.023483
v 0.056517 0.802500 1.023483
v 0.003483 0.857500 1.076517
v 0.003483 0.802500 1.076517
v -1.891257 0.322707 0.745857
v -1.857153 0.244849 0.745857
v -1.862847 0.335151 0.814143
v -1.828743 0.257293 0.814143
v -0.681257 0.852707 0.145857
v -0.647153 0.774849 0.145857
v -0.652847 0.865151 0.214143
v -0.618743 0.787293 0.214143
v -1.950000 0.855000 -0.970000
v -1.770000 0.855000 -0.970000
v -1.770000 0.855000 -0.790000
v -1.950000 0.855000 -0.790000
v -1.995000 0.070000 -0.985000
v -1.865000 0.070000 -0.985000
v -1.865000 0.070000 -0.855000
v -1.995000 0.070000 -0.855000
v 1.770000 0.855000 -0.970000
v 1.950000 0.855000 -0.970000
v 1.950000 0.855000 -0.790000
v 1.770000 0.855000 -0.790000
v 1.865000 0.070000 -0.985000
v 1.995000 0.070000 -0.985000
v 1.995000 0.070000 -0.855000
v 1.865000 0.070000 -0.855000
v 1.770000 0.855000 0.790000
v 1.950000 0.855000 0.790000
v 1.950000 0.855000 0.970000
v 1.770000 0.855000 0.970000
v 1.885000 0.070000 0.875000
v 2.015000 0.070000 0.875000
v 2.015000 0.070000 1.005000
v 1.885000 0.070000 1.005000
v -1.920000 0.580000 0.810000
v -1.740000 0.580000 0.810000
v -1.740000 0.580000 0.990000
v -1.920000 0.580000 0.990000
v -2.085000 0.070000 0.955000
v -1.955000 0.070000 0.955000
v -1.955000 0.070000 1.085000
v -2.085000 0.070000 1.085000
v -1.820000 0.842500 -0.937500
v -1.820000 0.757500 -0.937500
v -1.820000 0.842500 -0.862500
v -1.820000 0.757500 -0.862500
v 1.820000 0.842500 -0.937500
v 1.820000 0.757500 -0.937500
v 1.820000 0.842500 -0.862500
v 1.820000 0.757500 -0.862500
v 1.842500 0.757500 -0.820000
v 1.842500 0.842500 -0.820000
v 1.917500 0.757500 -0.820000
v 1.917500 0.842500 -0.820000
v 1.842500 0.757500 0.820000
v 1.842500 0.842500 0.820000
v 1.917500 0.757500 0.820000
v 1.917500 0.842500 0.820000
v 0.160000 0.832500 0.882500
v 0.160000 0.747500 0.882500
v 0.160000 0.832500 0.957500
v 0.160000 0.747500 0.957500
v 1.840000 0.832500 0.882500
v 1.840000 0.747500 0.882500
v 1.840000 0.832500 0.957500
v 1.840000 0.747500 0.957500
v -1.860000 0.277500 -0.935000
v -1.860000 0.202500 -0.935000
v -1.860000 0.277500 -0.865000
v -1.860000 0.202500 -0.865000
v 1.860000 0.277500 -0.935000
v 1.860000 0.202500 -0.935000
v 1.860000 0.277500 -0.865000
v 1.860000 0.202500 -0.865000
v 1.885002 0.202500 -0.859598
v 1.885002 0.277500 -0.859598
v 1.954998 0.202500 -0.860402
v 1.954998 0.277500 -0.860402
v 1.905002 0.202500 0.880402
v 1.905002 0.277500 0.880402
v 1.974998 0.202500 0.879598
v 1.974998 0.277500 0.879598
v -1.932130 0.154998 -0.939982
v -1.867615 0.147075 -0.939982
v -1.932385 0.152925 -0.880018
v -1.867870 0.145002 -0.880018
v -1.862130 0.724998 -0.919982
v -1.797615 0.717075 -0.919982
v -1.862385 0.722925 -0.860018
v -1.797870 0.715002 -0.860018
v 0.060000 0.860000 1.115000
v 0.140000 0.860000 1.180000
v 1.920000 0.860000 1.180000
v 2.030000 0.860000 1.100000
v 0.060000 0.670000 1.115000
v 0.140000 0.670000 1.180000
v 1.920000 0.670000 1.180000
v 2.030000 0.670000 1.100000
v 0.270000 0.315000 -0.575000
v 1.430000 0.315000 -0.575000
v 0.270000 0.315000 -0.385000
v 1.430000 0.315000 -0.385000
v 0.270000 0.385000 -0.575000
v 1.430000 0.385000 -0.575000
v 0.270000 0.385000 -0.385000
v 1.430000 0.385000 -0.385000
v 0.270000 0.315000 -0.265000
v 1.430000 0.315000 -0.265000
v 0.270000 0.315000 -0.075000
v 1.430000 0.315000 -0.075000
v 0.270000 0.385000 -0.265000
v 1.430000 0.385000 -0.265000
v 0.270000 0.385000 -0.075000
v 1.430000 0.385000 -0.075000
v 0.270000 0.315000 0.045000
v 1.430000 0.315000 0.045000
v 0.270000 0.315000 0.235000
v 1.430000 0.315000 0.235000
v 0.270000 0.385000 0.045000
v 1.430000 0.385000 0.045000
v 0.270000 0.385000 0.235000
v 1.430000 0.385000 0.235000
v 0.270000 0.315000 0.355000
v 1.430000 0.315000 0.355000
v 0.270000 0.315000 0.545000
v 1.430000 0.315000 0.545000
v 0.270000 0.385000 0.355000
v 1.430000 0.385000 0.355000
v 0.270000 0.385000 0.545000
v 1.430000 0.385000 0.545000
v 0.202500 0.282500 -0.620000
v 0.202500 0.337500 -0.620000
v 0.257500 0.282500 -0.620000
v 0.257500 0.337500 -0.620000
v 0.202500 0.282500 0.530000
v 0.202500 0.337500 0.530000
v 0.257500 0.282500 0.530000
v 0.257500 0.337500 0.530000
v 1.442500 0.282500 -0.620000
v 1.442500 0.337500 -0.620000
v 1.497500 0.282500 -0.620000
v 1.497500 0.337500 -0.620000
v 1.442500 0.282500 0.530000
v 1.442500 0.337500 0.530000
v 1.497500 0.282500 0.530000
v 1.497500 0.337500 0.530000
v -1.835000 0.070000 -0.920000
v -1.820000 0.000000 -0.920000
v -1.862825 0.070000 -0.852825
v -1.852218 0.000000 -0.842218
v -1.930000 0.070000 -0.825000
v -1.930000 0.000000 -0.810000
v -1.997175 0.070000 -0.852825
v -2.007782 0.000000 -0.842218
v -2.025000 0.070000 -0.920000
v -2.040000 0.000000 -0.920000
v -1.997175 0.070000 -0.987175
v -2.007782 0.000000 -0.997782
v -1.930000 0.070000 -1.015000
v -1.930000 0.000000 -1.030000
v -1.862825 0.070000 -0.987175
v -1.852218 0.000000 -0.997782
v 2.025000 0.070000 -0.920000
v 2.040000 0.000000 -0.920000
v 1.997175 0.070000 -0.852825
v 2.007782 0.000000 -0.842218
v 1.930000 0.070000 -0.825000
v 1.930000 0.000000 -0.810000
v 1.862825 0.070000 -0.852825
v 1.852218 0.000000 -0.842218
v 1.835000 0.070000 -0.920000
v 1.820000 0.000000 -0.920000
v 1.862825 0.070000 -0.987175
v 1.852218 0.000000 -0.997782
v 1.930000 0.070000 -1.015000
v 1.930000 0.000000 -1.030000
v 1.997175 0.070000 -0.987175
v 2.007782 0.000000 -0.997782
v 2.045000 0.070000 0.940000
v 2.060000 0.000000 0.940000
v 2.017175 0.070000 1.007175
v 2.027782 0.000000 1.017782
v 1.950000 0.070000 1.035000
v 1.950000 0.000000 1.050000
v 1.882825 0.070000 1.007175
v 1.872218 0.000000 1.017782
v 1.855000 0.070000 0.940000
v 1.840000 0.000000 0.940000
v 1.882825 0.070000 0.872825
v 1.872218 0.000000 0.862218
v 1.950000 0.070000 0.845000
v 1.950000 0.000000 0.830000
v 2.017175 0.070000 0.872825
v 2.027782 0.000000 0.862218
v -1.925000 0.070000 1.020000
v -1.910000 0.000000 1.020000
v -1.952825 0.070000 1.087175
v -1.942218 0.000000 1.097782
v -2.020000 0.070000 1.115000
v -2.020000 0.000000 1.130000
v -2.087175 0.070000 1.087175
v -2.097782 0.000000 1.097782
v -2.115000 0.070000 1.020000
v -2.130000 0.000000 1.020000
v -2.087175 0.070000 0.952825
v -2.097782 0.000000 0.942218
v -2.020000 0.070000 0.925000
v -2.020000 0.000000 0.910000
v -1.952825 0.070000 0.952825
v -1.942218 0.000000 0.942218
v -1.625000 0.937500 -0.640000
v -1.625000 0.912500 -0.640000
v -1.638180 0.937500 -0.608180
v -1.638180 0.912500 -0.608180
v -1.670000 0.937500 -0.595000
v -1.670000 0.912500 -0.595000
v -1.701820 0.937500 -0.608180
v -1.701820 0.912500 -0.608180
v -1.715000 0.937500 -0.640000
v -1.715000 0.912500 -0.640000
v -1.701820 0.937500 -0.671820
v -1.701820 0.912500 -0.671820
v -1.670000 0.937500 -0.685000
v -1.670000 0.912500 -0.685000
v -1.638180 0.937500 -0.671820
v -1.638180 0.912500 -0.671820
v -0.585000 1.007500 0.390000
v -0.585000 0.982500 0.390000
v -0.598180 1.007500 0.421820
v -0.598180 0.982500 0.421820
v -0.630000 1.007500 0.435000
v -0.630000 0.982500 0.435000
v -0.661820 1.007500 0.421820
v -0.661820 0.982500 0.421820
v -0.675000 1.007500 0.390000
v -0.675000 0.982500 0.390000
v -0.661820 1.007500 0.358180
v -0.661820 0.982500 0.358180
v -0.630000 1.007500 0.345000
v -0.630000 0.982500 0.345000
v -0.598180 1.007500 0.358180
v -0.598180 0.982500 0.358180
v 0.385000 0.887500 1.190000
v 0.385000 0.862500 1.190000
v 0.371820 0.887500 1.221820
v 0.371820 0.862500 1.221820
v 0.340000 0.887500 1.235000
v 0.340000 0.862500 1.235000
v 0.308180 0.887500 1.221820
v 0.308180 0.862500 1.221820
v 0.295000 0.887500 1.190000
v 0.295000 0.862500 1.190000
v 0.308180 0.887500 1.158180
v 0.308180 0.862500 1.158180
v 0.340000 0.887500 1.145000
v 0.340000 0.862500 1.145000
v 0.371820 0.887500 1.158180
v 0.371820 0.862500 1.158180
v 1.775000 0.887500 1.190000
v 1.775000 0.862500 1.190000
v 1.761820 0.887500 1.221820
v 1.761820 0.862500 1.221820
v 1.730000 0.887500 1.235000
v 1.730000 0.862500 1.235000
v 1.698180 0.887500 1.221820
v 1.698180 0.862500 1.221820
v 1.685000 0.887500 1.190000
v 1.685000 0.862500 1.190000
v 1.698180 0.887500 1.158180
v 1.698180 0.862500 1.158180
v 1.730000 0.887500 1.145000
v 1.730000 0.862500 1.145000
v 1.761820 0.887500 1.158180
v 1.761820 0.862500 1.158180
o IntactCountertop
usemtl WoodTop
f 1 2 3
f 1 3 4
f 1 4 5
f 1 5 6
usemtl WoodSide
f 7 9 8
f 7 10 9
f 7 11 10
f 7 12 11
f 1 7 8 2
f 2 8 9 3
f 3 9 10 4
f 4 10 11 5
f 5 11 12 6
f 6 12 7 1
o BrokenCornerFlap
usemtl WoodTop
f 13 14 15
usemtl BreakEdge
f 16 18 17
f 13 16 17 14
f 14 17 18 15
f 15 18 16 13
o FractureShadow
f 19 21 25 23
f 20 24 26 22
f 19 20 22 21
f 23 25 26 24
f 19 23 24 20
f 21 22 26 25
o BrokenUnderBrace
usemtl Metal
f 27 29 33 31
f 28 32 34 30
f 27 28 30 29
f 31 33 34 32
f 27 31 32 28
f 29 30 34 33
o LeftRearLeg
f 35 38 37 36
f 39 40 41 42
f 35 36 40 39
f 36 37 41 40
f 37 38 42 41
f 38 35 39 42
o RightRearLeg
f 43 46 45 44
f 47 48 49 50
f 43 44 48 47
f 44 45 49 48
f 45 46 50 49
f 46 43 47 50
o RightFrontLeg
f 51 54 53 52
f 55 56 57 58
f 51 52 56 55
f 52 53 57 56
f 53 54 58 57
f 54 51 55 58
o DamagedFrontLeg
f 59 62 61 60
f 63 64 65 66
f 59 60 64 63
f 60 61 65 64
f 61 62 66 65
f 62 59 63 66
o RearUpperRail
f 67 69 73 71
f 68 72 74 70
f 67 68 70 69
f 71 73 74 72
f 67 71 72 68
f 69 70 74 73
o RightUpperRail
f 75 77 81 79
f 76 80 82 78
f 75 76 78 77
f 79 81 82 80
f 75 79 80 76
f 77 78 82 81
o FrontUpperRail
f 83 85 89 87
f 84 88 90 86
f 83 84 86 85
f 87 89 90 88
f 83 87 88 84
f 85 86 90 89
o RearLowerRail
f 91 93 97 95
f 92 96 98 94
f 91 92 94 93
f 95 97 98 96
f 91 95 96 92
f 93 94 98 97
o RightLowerRail
f 99 101 105 103
f 100 104 106 102
f 99 100 102 101
f 103 105 106 104
f 99 103 104 100
f 101 102 106 105
o LeftRearDiagonal
f 107 109 113 111
f 108 112 114 110
f 107 108 110 109
f 111 113 114 112
f 107 111 112 108
f 109 110 114 113
o FrontAccent
usemtl Accent
f 115 116 117
f 115 117 118
f 119 121 120
f 119 122 121
f 115 119 120 116
f 116 120 121 117
f 117 121 122 118
f 118 122 119 115
o UnderShelfSlat0
usemtl WoodSide
f 123 125 129 127
f 124 128 130 126
f 123 124 126 125
f 127 129 130 128
f 123 127 128 124
f 125 126 130 129
o UnderShelfSlat1
f 131 133 137 135
f 132 136 138 134
f 131 132 134 133
f 135 137 138 136
f 131 135 136 132
f 133 134 138 137
o UnderShelfSlat2
f 139 141 145 143
f 140 144 146 142
f 139 140 142 141
f 143 145 146 144
f 139 143 144 140
f 141 142 146 145
o UnderShelfSlat3
f 147 149 153 151
f 148 152 154 150
f 147 148 150 149
f 151 153 154 152
f 147 151 152 148
f 149 150 154 153
o UnderShelfLeftSupport
usemtl Metal
f 155 157 161 159
f 156 160 162 158
f 155 156 158 157
f 159 161 162 160
f 155 159 160 156
f 157 158 162 161
o UnderShelfRightSupport
f 163 165 169 167
f 164 168 170 166
f 163 164 166 165
f 167 169 170 168
f 163 167 168 164
f 165 166 170 169
o RubberFoot
usemtl Rubber
f 185 183 181 179 177 175 173 171
f 172 174 176 178 180 182 184 186
f 171 173 174 172
f 173 175 176 174
f 175 177 178 176
f 177 179 180 178
f 179 181 182 180
f 181 183 184 182
f 183 185 186 184
f 185 171 172 186
o RubberFoot
f 201 199 197 195 193 191 189 187
f 188 190 192 194 196 198 200 202
f 187 189 190 188
f 189 191 192 190
f 191 193 194 192
f 193 195 196 194
f 195 197 198 196
f 197 199 200 198
f 199 201 202 200
f 201 187 188 202
o RubberFoot
f 217 215 213 211 209 207 205 203
f 204 206 208 210 212 214 216 218
f 203 205 206 204
f 205 207 208 206
f 207 209 210 208
f 209 211 212 210
f 211 213 214 212
f 213 215 216 214
f 215 217 218 216
f 217 203 204 218
o RubberFoot
f 233 231 229 227 225 223 221 219
f 220 222 224 226 228 230 232 234
f 219 221 222 220
f 221 223 224 222
f 223 225 226 224
f 225 227 228 226
f 227 229 230 228
f 229 231 232 230
f 231 233 234 232
f 233 219 220 234
o Bolt
usemtl Metal
f 249 247 245 243 241 239 237 235
f 236 238 240 242 244 246 248 250
f 235 237 238 236
f 237 239 240 238
f 239 241 242 240
f 241 243 244 242
f 243 245 246 244
f 245 247 248 246
f 247 249 250 248
f 249 235 236 250
o Bolt
f 265 263 261 259 257 255 253 251
f 252 254 256 258 260 262 264 266
f 251 253 254 252
f 253 255 256 254
f 255 257 258 256
f 257 259 260 258
f 259 261 262 260
f 261 263 264 262
f 263 265 266 264
f 265 251 252 266
o Bolt
f 281 279 277 275 273 271 269 267
f 268 270 272 274 276 278 280 282
f 267 269 270 268
f 269 271 272 270
f 271 273 274 272
f 273 275 276 274
f 275 277 278 276
f 277 279 280 278
f 279 281 282 280
f 281 267 268 282
o Bolt
f 297 295 293 291 289 287 285 283
f 284 286 288 290 292 294 296 298
f 283 285 286 284
f 285 287 288 286
f 287 289 290 288
f 289 291 292 290
f 291 293 294 292
f 293 295 296 294
f 295 297 298 296
f 297 283 284 298
